<svg width="32" height="32" viewBox="0 0 32 32" fill="none" xmlns="http://www.w3.org/2000/svg">
<path d="M0.00634766 0.00476074V13.4905L1.20279 10.6939H3.27257L3.95077 12.2589V10.6939H6.5228L6.92588 11.826L7.31617 10.6939H18.8615V11.2616C18.8615 11.2616 19.4693 10.6939 20.4642 10.6939L24.2103 10.7067L24.8789 12.2525V10.6939H27.0319L27.6237 11.5823V10.6939H29.7959V15.7162H27.6237L27.0575 14.8246V15.7162H23.8968L23.5801 14.924H22.7292L22.4157 15.7162H20.2723C19.415 15.7162 18.8647 15.1581 18.8647 15.1581V15.7162H15.6273L14.9843 14.924V15.7162H2.96546L2.64876 14.924H1.80101L1.48431 15.7162H0.00634766V31.9952H31.9168V21.9507C31.9168 21.9507 31.4146 22.2906 30.8323 22.2971H20.1699L19.5269 21.5049V22.2971H17.4251V20.9469C17.4251 20.9469 17.1372 21.1361 16.5166 21.1361H15.8V22.3003H12.617L12.0476 21.5402L11.4717 22.3003H6.1997V17.2748H11.5037L12.0731 18.0188L12.6618 17.2748H31.9168V0.00476074H0.00634766Z" fill="white"/>
<path d="M1.62501 11.3129L0.0126953 15.0715H1.06198L1.35949 14.3179H3.09018L3.38769 15.0715H4.46257L2.85025 11.3129H1.62501ZM2.22324 12.1884L2.75108 13.5033H1.69539L2.22324 12.1884Z" fill="white"/>
<path d="M4.57141 15.0715V11.3129L6.06537 11.3193L6.93231 13.7438L7.78006 11.3129H9.26122V15.0748H8.3239V12.3038L7.32899 15.0748H6.50684L5.50873 12.3006V15.0715H4.57141Z" fill="white"/>
<path d="M9.90417 15.0715V11.3129H12.9625V12.1531H10.8511V12.7977H12.9145V13.5899H10.8511V14.257H12.9625V15.0748L9.90417 15.0715Z" fill="white"/>
<path d="M13.5063 11.3129V15.0748H14.4437V13.7374H14.8372L15.9632 15.0748H17.1085L15.8736 13.6893C16.3791 13.6476 16.9037 13.2114 16.9037 12.5348C16.9037 11.7426 16.2831 11.3161 15.5921 11.3161L13.5063 11.3129ZM14.4437 12.1531H15.5153C15.7713 12.1531 15.96 12.3552 15.96 12.5476C15.96 12.7977 15.7169 12.9421 15.5281 12.9421H14.4437V12.1531Z" fill="white"/>
<path d="M18.2441 15.0715H17.2876V11.3129H18.2441V15.0715Z" fill="white"/>
<path d="M20.5154 15.0715H20.3075C19.3062 15.0715 18.7015 14.2826 18.7015 13.2082C18.7015 12.1082 19.303 11.3129 20.5634 11.3129H21.5999V12.2044H20.525C20.0131 12.2044 19.6485 12.6053 19.6485 13.2179C19.6485 13.9459 20.0643 14.2505 20.6594 14.2505H20.9057L20.5154 15.0715Z" fill="white"/>
<path d="M22.5564 11.3129L20.9441 15.0748H21.9934L22.2909 14.3211H24.0216L24.3191 15.0748H25.394L23.7816 11.3129H22.5564ZM23.1514 12.1884L23.6793 13.5033H22.6236L23.1514 12.1884Z" fill="white"/>
<path d="M25.4995 15.0715V11.3129H26.6928L28.2155 13.6765V11.3129H29.1528V15.0748H27.998L26.4368 12.6502V15.0748H25.4995V15.0715Z" fill="white"/>
<path d="M6.84265 21.6524V17.8937H9.90413V18.734H7.79277V19.3786H9.85615V20.1708H7.79277V20.8378H9.90413V21.6524H6.84265Z" fill="white"/>
<path d="M21.8367 21.6524V17.8937H24.8982V18.734H22.7868V19.3786H24.8406V20.1708H22.7868V20.8378H24.8982V21.6524H21.8367Z" fill="white"/>
<path d="M10.0226 21.6524L11.5134 19.7955L9.98743 17.8937H11.1679L12.0764 19.0707L12.9881 17.8937H14.1238L12.617 19.7731L14.111 21.6524H12.9305L12.0476 20.4947L11.1871 21.6524H10.0226Z" fill="white"/>
<path d="M14.2229 17.8937V21.6556H15.1858V20.469H16.1743C17.0093 20.469 17.6427 20.0232 17.6427 19.1605C17.6427 18.4454 17.1468 17.8969 16.2959 17.8969H14.2229V17.8937ZM15.1858 18.7436H16.2255C16.4942 18.7436 16.6894 18.9104 16.6894 19.1766C16.6894 19.4267 16.4974 19.6095 16.2223 19.6095H15.1858V18.7436Z" fill="white"/>
<path d="M18.0458 17.8937V21.6524H18.9831V20.3151H19.3766L20.5026 21.6524H21.6479L20.4163 20.267C20.9217 20.2253 21.4464 19.7891 21.4464 19.1124C21.4464 18.3203 20.8257 17.8937 20.1348 17.8937H18.0458ZM18.9863 18.734H20.058C20.3139 18.734 20.5026 18.936 20.5026 19.1285C20.5026 19.3786 20.2595 19.5229 20.0708 19.5229H18.9863V18.734Z" fill="white"/>
<path d="M25.3332 21.6524V20.8346H27.211C27.4894 20.8346 27.6077 20.6839 27.6077 20.5203C27.6077 20.3632 27.4894 20.2028 27.211 20.2028H26.3633C25.6275 20.2028 25.2148 19.7538 25.2148 19.0771C25.2148 18.4742 25.5923 17.8937 26.6864 17.8937H28.5131L28.1196 18.7404H26.5392C26.2385 18.7404 26.1458 18.9008 26.1458 19.0515C26.1458 19.2086 26.2609 19.3786 26.4913 19.3786H27.3806C28.2028 19.3786 28.5578 19.8468 28.5578 20.4594C28.5578 21.1168 28.1612 21.6556 27.3358 21.6556H25.3332V21.6524Z" fill="white"/>
<path d="M28.7753 21.6524V20.8346H30.6532C30.9315 20.8346 31.0499 20.6839 31.0499 20.5203C31.0499 20.3632 30.9315 20.2028 30.6532 20.2028H29.8054C29.0697 20.2028 28.657 19.7538 28.657 19.0771C28.657 18.4742 29.0345 17.8937 30.1285 17.8937H31.9552L31.5617 18.7404H29.9814C29.6807 18.7404 29.5879 18.9008 29.5879 19.0515C29.5879 19.2086 29.7031 19.3786 29.9334 19.3786H30.8227C31.6449 19.3786 32 19.8468 32 20.4594C32 21.1168 31.6033 21.6556 30.7779 21.6556H28.7753V21.6524Z" fill="white"/>
</svg>
