<svg width="39" height="31" viewBox="0 0 39 31" fill="none" xmlns="http://www.w3.org/2000/svg">
<path d="M6.84622 30.2304V28.2156C6.84622 27.4448 6.38787 26.9401 5.60102 26.9401C5.2076 26.9401 4.7798 27.0731 4.48569 27.5113C4.25652 27.1436 3.92803 26.9401 3.4353 26.9401C3.10681 26.9401 2.77832 27.0418 2.51859 27.4096V27.0066H1.83105V30.2304H2.51859V28.4503C2.51859 27.8791 2.8127 27.6091 3.27105 27.6091C3.72941 27.6091 3.95859 27.9104 3.95859 28.4503V30.2304H4.64612V28.4503C4.64612 27.8791 4.97461 27.6091 5.39858 27.6091C5.85694 27.6091 6.08612 27.9104 6.08612 28.4503V30.2304H6.84622ZM17.0446 27.0066H15.9293V26.0325H15.2418V27.0066H14.6192V27.6444H15.2418V29.1232C15.2418 29.8627 15.5359 30.297 16.3227 30.297C16.6168 30.297 16.9453 30.1952 17.1745 30.0622L16.9759 29.4558C16.7772 29.5888 16.5481 29.624 16.3838 29.624C16.0553 29.624 15.9255 29.4206 15.9255 29.088V27.6444H17.0408V27.0066H17.0446ZM22.8772 26.9401C22.4838 26.9401 22.2202 27.1436 22.056 27.4096V27.0066H21.3684V30.2304H22.056V28.4151C22.056 27.8791 22.2851 27.5739 22.7129 27.5739C22.8428 27.5739 23.007 27.6091 23.1407 27.6404L23.3394 26.9675C23.2057 26.9401 23.0109 26.9401 22.8772 26.9401ZM14.0577 27.2766C13.7292 27.0419 13.2708 26.9401 12.7781 26.9401C11.9913 26.9401 11.468 27.3431 11.468 27.9808C11.468 28.5168 11.8614 28.822 12.5489 28.9198L12.8774 28.955C13.2365 29.0215 13.4351 29.1232 13.4351 29.2915C13.4351 29.5262 13.1715 29.6944 12.7132 29.6944C12.2548 29.6944 11.8919 29.5262 11.6628 29.358L11.3343 29.894C11.6933 30.1639 12.1861 30.297 12.6788 30.297C13.5955 30.297 14.1226 29.8588 14.1226 29.2563C14.1226 28.6851 13.6948 28.3838 13.0417 28.2821L12.7132 28.2469C12.4191 28.2117 12.1899 28.1451 12.1899 27.9456C12.1899 27.7109 12.4191 27.5778 12.7819 27.5778C13.1753 27.5778 13.5688 27.7461 13.7674 27.8478L14.0577 27.2766ZM32.3537 26.9401C31.9602 26.9401 31.6967 27.1436 31.5325 27.4096V27.0066H30.8449V30.2304H31.5325V28.4151C31.5325 27.8791 31.7616 27.5739 32.1894 27.5739C32.3193 27.5739 32.4835 27.6091 32.6172 27.6404L32.8158 26.9675C32.6822 26.9401 32.4835 26.9401 32.3537 26.9401ZM23.5685 28.6185C23.5685 29.5927 24.2255 30.297 25.2415 30.297C25.6999 30.297 26.0284 30.1952 26.3569 29.9292L26.0284 29.358C25.7648 29.5614 25.5051 29.6592 25.2072 29.6592C24.6495 29.6592 24.2561 29.2563 24.2561 28.6185C24.2561 28.0121 24.6495 27.6091 25.2072 27.5778C25.5013 27.5778 25.7648 27.6796 26.0284 27.8791L26.3569 27.3079C26.0284 27.0379 25.6999 26.9401 25.2415 26.9401C24.2217 26.9401 23.5685 27.6444 23.5685 28.6185ZM29.9282 28.6185V27.0066H29.2407V27.4096C29.0115 27.1084 28.683 26.9401 28.2552 26.9401C27.3691 26.9401 26.6815 27.6444 26.6815 28.6185C26.6815 29.5927 27.3691 30.297 28.2552 30.297C28.7136 30.297 29.0421 30.1287 29.2407 29.8275V30.2304H29.9282V28.6185ZM27.4034 28.6185C27.4034 28.0473 27.7625 27.5778 28.3545 27.5778C28.9122 27.5778 29.3056 28.016 29.3056 28.6185C29.3056 29.1897 28.9122 29.6592 28.3545 29.6592C27.7625 29.624 27.4034 29.1897 27.4034 28.6185ZM19.1721 26.9401C18.2554 26.9401 17.5985 27.6131 17.5985 28.6185C17.5985 29.6279 18.2554 30.297 19.2065 30.297C19.6649 30.297 20.1232 30.1639 20.4861 29.8588L20.1576 29.3541C19.8941 29.5575 19.5656 29.6905 19.2409 29.6905C18.8131 29.6905 18.3891 29.4871 18.2898 28.9198H20.616C20.616 28.8181 20.616 28.7516 20.616 28.6498C20.6503 27.6091 20.0583 26.9401 19.1721 26.9401ZM19.1721 27.5426C19.5999 27.5426 19.8941 27.8126 19.959 28.3134H18.3204C18.3853 27.8791 18.6832 27.5426 19.1721 27.5426ZM36.2573 28.6185V25.7312H35.5698V27.4096C35.3406 27.1084 35.0121 26.9401 34.5843 26.9401C33.6982 26.9401 33.0106 27.6444 33.0106 28.6185C33.0106 29.5927 33.6982 30.297 34.5843 30.297C35.0427 30.297 35.3712 30.1287 35.5698 29.8275V30.2304H36.2573V28.6185ZM33.7326 28.6185C33.7326 28.0473 34.0916 27.5778 34.6836 27.5778C35.2413 27.5778 35.6347 28.016 35.6347 28.6185C35.6347 29.1897 35.2413 29.6592 34.6836 29.6592C34.0916 29.624 33.7326 29.1897 33.7326 28.6185ZM10.7155 28.6185V27.0066H10.028V27.4096C9.79879 27.1084 9.4703 26.9401 9.0425 26.9401C8.15635 26.9401 7.46882 27.6444 7.46882 28.6185C7.46882 29.5927 8.15635 30.297 9.0425 30.297C9.50086 30.297 9.82935 30.1287 10.028 29.8275V30.2304H10.7155V28.6185ZM8.15635 28.6185C8.15635 28.0473 8.5154 27.5778 9.10744 27.5778C9.6651 27.5778 10.0585 28.016 10.0585 28.6185C10.0585 29.1897 9.6651 29.6592 9.10744 29.6592C8.51922 29.624 8.15635 29.1897 8.15635 28.6185Z" fill="white"/>
<path d="M23.3914 12.0384C23.3914 8.43903 21.8291 5.09003 19.0943 2.82867C16.3785 5.09003 14.8278 8.4312 14.8278 12.0149C14.8278 15.6143 16.39 18.9633 19.1248 21.2247C21.8368 18.9633 23.3914 15.6261 23.3914 12.0384Z" fill="white"/>
<path d="M15.7139 17.4219C14.8965 15.7317 14.484 13.9125 14.484 12.0149C14.484 8.30992 16.0959 4.8592 18.9071 2.53134C16.9247 0.958558 14.4344 0.0234985 11.7301 0.0234985C5.25198 0.0234985 0 5.40302 0 12.0384C0 18.6738 5.25198 24.0533 11.7301 24.0533C14.4458 24.0533 16.9438 23.1066 18.9339 21.522C17.5894 20.4148 16.4779 19.0025 15.7139 17.4219Z" fill="white"/>
<path d="M26.2866 0C23.6167 0 21.1569 0.915497 19.1821 2.45306L19.1974 2.4648C20.5801 3.58374 21.7184 5.0235 22.4976 6.63148C23.315 8.32163 23.7275 10.1409 23.7275 12.0384C23.7275 15.7786 22.085 19.2606 19.2241 21.5885L19.2089 21.6003C21.176 23.1261 23.6243 24.0298 26.2828 24.0298C32.7609 24.0298 38.0128 18.6503 38.0128 12.0149C38.0128 5.37952 32.7685 0 26.2866 0Z" fill="white"/>
</svg>
