<svg width="47" height="16" viewBox="0 0 47 16" fill="none" xmlns="http://www.w3.org/2000/svg">
<path d="M0.689331 0.945679C0.689331 0.945679 4.98154 0.945679 6.56288 0.945679C8.14422 0.945679 8.59604 2.24801 8.59604 2.24801L9.95147 8.54261C8.14422 3.33328 0.689331 0.945679 0.689331 0.945679Z" fill="white"/>
<path d="M7.91834 14.8372L4.98157 3.55034C4.98157 3.55034 8.14425 5.06973 10.1774 9.41083C10.1774 9.84494 10.4033 10.7132 10.4033 10.7132L13.7919 0.945679H17.8582L12.2106 14.8372H7.91834Z" fill="white"/>
<path d="M21.0208 14.8372H17.1804L19.4395 0.945679H23.5058L21.0208 14.8372Z" fill="white"/>
<path d="M27.5722 15.2713C24.8613 15.2713 23.5059 14.4031 23.5059 14.4031L24.1836 11.5814C24.1836 11.5814 25.539 12.4496 27.7981 12.4496C30.0571 12.4496 30.283 11.5814 30.283 11.1473C30.283 8.97673 25.0872 9.41084 25.0872 5.06974C25.0872 2.68213 27.1204 0.728638 31.1867 0.728638C32.768 0.728638 34.5752 1.3798 34.5752 1.3798L33.8975 4.41857C33.8975 4.41857 32.5421 3.55035 31.1867 3.55035C29.3794 3.55035 28.7017 4.20152 28.7017 4.85268C28.7017 6.37207 33.8975 6.58912 33.8975 10.2791C34.1234 13.3178 30.283 15.2713 27.5722 15.2713Z" fill="white"/>
<path d="M44.2891 0.945679H40.2228L33.8975 14.8372H37.7379L38.4156 12.8837H43.1596L43.6114 14.8372H47L44.2891 0.945679ZM39.5451 10.279L41.8042 5.06972L42.9337 10.279H39.5451Z" fill="white"/>
</svg>
