<svg width="20" height="20" viewBox="0 0 20 20" fill="none" xmlns="http://www.w3.org/2000/svg">
<path d="M9.97934 3.86364C11.9628 3.86364 12.2107 3.86364 12.9959 3.90496C13.7397 3.94628 14.1116 4.07025 14.4008 4.15289C14.7314 4.27686 14.9793 4.44215 15.2686 4.7314C15.5165 4.97934 15.6818 5.22727 15.8471 5.59917C15.9297 5.84711 16.0537 6.26033 16.095 7.00413C16.1364 7.78926 16.1364 8.03719 16.1364 10.0207C16.1364 12.0041 16.1364 12.2521 16.095 13.0372C16.0537 13.781 15.9297 14.1529 15.8471 14.4421C15.7231 14.7727 15.5578 15.062 15.2686 15.3099C15.0207 15.5579 14.7727 15.7231 14.4008 15.8884C14.1529 15.9711 13.7397 16.095 12.9959 16.1364C12.2107 16.1777 11.9628 16.1777 9.97934 16.1777C7.99587 16.1777 7.74793 16.1777 6.9628 16.1364C6.219 16.095 5.84711 15.9711 5.55785 15.8884C5.22727 15.7645 4.93801 15.5992 4.69008 15.3099C4.44214 15.062 4.27686 14.8141 4.11157 14.4421C4.02892 14.1942 3.90495 13.781 3.86363 13.0372C3.82231 12.2521 3.82232 12.0041 3.82232 10.0207C3.82232 8.03719 3.82231 7.78926 3.86363 7.00413C3.90495 6.26033 4.02892 5.88843 4.11157 5.59917C4.23553 5.26859 4.40082 5.02066 4.69008 4.7314C4.93801 4.48347 5.18595 4.31818 5.55785 4.15289C5.80578 4.07025 6.219 3.94628 6.9628 3.90496C7.74793 3.86364 7.95455 3.86364 9.97934 3.86364ZM9.97934 2.5C7.95455 2.5 7.70661 2.5 6.88017 2.54132C6.09504 2.58264 5.55786 2.70661 5.06199 2.8719C4.56612 3.11983 4.15289 3.36777 3.73967 3.78099C3.32645 4.19421 3.07851 4.60744 2.8719 5.10331C2.70661 5.59917 2.54132 6.13636 2.54132 6.92149C2.5 7.70661 2.5 7.99587 2.5 10.0207C2.5 12.0455 2.5 12.2934 2.54132 13.1198C2.58265 13.905 2.70661 14.4421 2.8719 14.938C3.07851 15.4339 3.32645 15.8471 3.73967 16.2603C4.15289 16.6736 4.56612 16.9215 5.06199 17.1281C5.55786 17.2934 6.09504 17.4587 6.88017 17.4587C7.66529 17.5 7.95455 17.5 9.97934 17.5C12.0041 17.5 12.2521 17.5 13.0785 17.4587C13.8636 17.4174 14.4008 17.2934 14.8967 17.1281C15.3926 16.9215 15.8058 16.6736 16.219 16.2603C16.6322 15.8471 16.8802 15.4339 17.0868 14.938C17.2521 14.4421 17.4174 13.905 17.4174 13.1198C17.4587 12.3347 17.4587 12.0455 17.4587 10.0207C17.4587 7.99587 17.4587 7.74793 17.4174 6.92149C17.376 6.13636 17.2521 5.59917 17.0868 5.10331C16.8802 4.60744 16.6322 4.19421 16.219 3.78099C15.8058 3.36777 15.3926 3.11983 14.8967 2.91322C14.4008 2.74793 13.8636 2.58264 13.0785 2.58264C12.2521 2.54132 12.0041 2.5 9.97934 2.5Z" fill="white"/>
<path d="M9.97934 6.1777C7.8719 6.1777 6.13635 7.91324 6.13635 10.0207C6.13635 12.1281 7.8719 13.8637 9.97934 13.8637C12.0868 13.8637 13.8223 12.1281 13.8223 10.0207C13.8223 7.91324 12.0868 6.1777 9.97934 6.1777ZM9.97934 12.5C8.6157 12.5 7.5 11.3843 7.5 10.0207C7.5 8.65704 8.6157 7.54134 9.97934 7.54134C11.343 7.54134 12.4587 8.65704 12.4587 10.0207C12.4587 11.3843 11.343 12.5 9.97934 12.5Z" fill="white"/>
<path d="M14.8554 6.01239C14.8554 6.50826 14.4422 6.92148 13.9463 6.92148C13.4505 6.92148 13.0372 6.50826 13.0372 6.01239C13.0372 5.51653 13.4505 5.1033 13.9463 5.1033C14.4422 5.1033 14.8554 5.51653 14.8554 6.01239Z" fill="white"/>
</svg>
