<svg width="48" height="18" viewBox="0 0 48 18" fill="none" xmlns="http://www.w3.org/2000/svg">
<path d="M30.0328 6.68855H31.7377V12.3279C31.7377 12.4591 31.8688 12.4591 31.8688 12.4591H33.1803C33.3115 12.4591 33.3115 12.3279 33.3115 12.3279V6.68855H35.0164C35.1475 6.68855 35.2787 6.5574 35.2787 6.5574V5.50822C35.2787 5.37708 35.1475 5.37708 35.0164 5.37708H30.0328C29.9016 5.37708 29.9016 5.50822 29.9016 5.50822V6.5574C29.9016 6.5574 30.0328 6.68855 30.0328 6.68855Z" fill="black"/>
<path d="M38.4263 12.5901C39.4755 12.5901 40.0001 12.459 40.3935 12.459C40.5247 12.459 40.5247 12.3278 40.5247 12.1967V11.4098C40.5247 11.2786 40.3935 11.2786 40.3935 11.2786H38.2952C37.7706 11.2786 37.6394 11.1475 37.6394 10.6229V9.44258H40.2624C40.3935 9.44258 40.3935 9.31143 40.3935 9.31143V8.39339C40.3935 8.26225 40.2624 8.26225 40.2624 8.26225H37.6394V7.34421C37.6394 6.81962 37.7706 6.68847 38.2952 6.68847H40.3935C40.5247 6.68847 40.5247 6.55733 40.5247 6.55733V5.50814C40.5247 5.377 40.5247 5.377 40.3935 5.377C40.1312 5.24585 39.4755 5.24585 38.4263 5.24585C37.1148 5.24585 36.0657 5.50814 36.0657 7.34421V10.4918C36.0657 12.3278 37.246 12.5901 38.4263 12.5901Z" fill="black"/>
<path d="M43.6721 8.78688L41.5737 12.3279C41.5737 12.3279 41.5737 12.3279 41.5737 12.459C41.5737 12.5902 41.5737 12.5902 41.7049 12.5902H43.1475C43.2787 12.5902 43.2787 12.459 43.4098 12.459L44.7213 10.2295L46.0328 12.3279C46.1639 12.459 46.1639 12.459 46.295 12.459H47.8688C48 12.459 48 12.459 48 12.3279V12.1967L45.7705 8.65573L47.8688 5.24589C47.8688 5.11475 47.7377 5.11475 47.7377 5.11475H46.295C46.1639 5.24589 46.0328 5.37704 46.0328 5.50819L44.8524 7.4754L43.5409 5.50819C43.5409 5.37704 43.4098 5.24589 43.2787 5.24589H41.7049C41.5737 5.24589 41.5737 5.24589 41.5737 5.37704L43.6721 8.78688Z" fill="black"/>
<path d="M24.3935 11.541C24.6558 12.1968 25.1804 12.5902 25.9673 12.5902C26.623 12.5902 27.2788 12.1968 27.5411 11.541C27.5411 11.4099 29.246 5.50822 29.246 5.50822C29.246 5.37708 29.246 5.37708 29.1148 5.37708H27.6722C27.5411 5.37708 27.5411 5.37708 27.5411 5.50822L26.0984 10.7541C26.0984 10.8853 26.0984 10.8853 25.9673 10.8853C25.8361 10.8853 25.8361 10.8853 25.8361 10.7541L24.3935 5.50822C24.3935 5.37708 24.2624 5.37708 24.2624 5.37708H22.8197C22.6886 5.37708 22.6886 5.50822 22.6886 5.50822C22.5574 5.50822 24.2624 11.541 24.3935 11.541Z" fill="black"/>
<path d="M18.8853 0H3.67213C2.49181 0 1.70492 1.31148 2.22951 2.36066L3.80328 5.24591H1.04918C0.52459 5.24591 0 5.63935 0 6.29509C0.131148 6.29509 0.131146 6.55739 0.131146 6.68853L4.98361 16C5.24591 16.5246 5.90165 16.6558 6.29509 16.3935C6.42624 16.2623 6.55738 16.1312 6.68853 16L8.00001 13.5082L9.70493 16.6558C10.2295 17.7049 11.9344 17.7049 12.459 16.6558L20.0656 2.36066C20.8525 1.18033 20.0656 0 18.8853 0ZM12.0656 6.16394L8.78689 12.3279C8.65574 12.7213 8.26231 12.7213 7.86886 12.5902C7.73771 12.5902 7.60657 12.459 7.60657 12.3279L4.32787 6.16394C4.19673 5.7705 4.32787 5.37706 4.59017 5.24591C4.72132 5.24591 4.85246 5.11476 4.85246 5.11476H11.4098C11.8033 5.11476 12.0656 5.37706 12.0656 5.7705C12.1967 5.90165 12.1967 6.03279 12.0656 6.16394Z" fill="black"/>
</svg>
