<svg width="20" height="20" viewBox="0 0 20 20" fill="none" xmlns="http://www.w3.org/2000/svg">
<g clip-path="url(#clip0_7553_25588)">
<path fill-rule="evenodd" clip-rule="evenodd" d="M17.5 9.65385C17.3846 5.67308 14.1538 2.5 10.1154 2.5C6.19231 2.5 2.96154 5.61538 2.78846 9.48077C2.78846 9.59615 2.78846 9.71154 2.78846 9.82692C2.78846 11.2115 3.19231 12.4808 3.82692 13.5769L2.5 17.5L6.59615 16.2308C7.63462 16.8077 8.84615 17.1538 10.1731 17.1538C14.2692 17.1538 17.5577 13.8654 17.5577 9.82692C17.5 9.76923 17.5 9.71154 17.5 9.65385ZM10.1154 15.9423C8.84615 15.9423 7.69231 15.5962 6.71154 14.9038L4.34615 15.6538L5.09615 13.3462C4.34615 12.3077 3.94231 11.0962 3.94231 9.76923C3.94231 9.59615 3.94231 9.36538 4 9.19231C4.28846 6.07692 6.94231 3.65385 10.1154 3.65385C13.3462 3.65385 16.0577 6.13462 16.2885 9.30769C16.2885 9.48077 16.2885 9.65385 16.2885 9.76923C16.3462 13.2308 13.5769 15.9423 10.1154 15.9423Z" fill="white"/>
<path fill-rule="evenodd" clip-rule="evenodd" d="M13.5192 11.2692C13.3461 11.1538 12.4231 10.75 12.3077 10.6923C12.1346 10.6346 12.0192 10.5769 11.9038 10.8077C11.7885 10.9808 11.4423 11.3846 11.3269 11.5C11.2115 11.6154 11.0961 11.6154 10.9231 11.5577C10.75 11.4423 10.1731 11.2692 9.48076 10.6923C8.96153 10.2308 8.55768 9.65384 8.49999 9.48076C8.38461 9.30768 8.49999 9.1923 8.55768 9.1346C8.61538 9.07691 8.73076 8.90384 8.84614 8.84614C8.84614 8.78845 8.90384 8.78845 8.90384 8.78845C8.96153 8.73076 8.96153 8.67307 9.01922 8.55768C9.07691 8.4423 9.07691 8.32691 9.01922 8.26922C8.96153 8.15384 8.61538 7.28845 8.4423 6.9423C8.26922 6.42307 8.09614 6.48076 7.98076 6.48076C7.86538 6.48076 7.74999 6.48076 7.63461 6.48076C7.51922 6.48076 7.34614 6.53845 7.17307 6.71153C6.99999 6.8846 6.53845 7.28845 6.53845 8.21153C6.53845 8.4423 6.59614 8.61537 6.65384 8.84614C6.82691 9.48076 7.23076 9.99999 7.28845 10.1154C7.40384 10.2308 8.55768 12.0769 10.3461 12.8269C12.1923 13.5192 12.1923 13.2885 12.5385 13.2885C12.8846 13.2885 13.6346 12.8846 13.75 12.4231C13.9231 12.0192 13.9231 11.6731 13.8654 11.5577C13.8077 11.4423 13.6923 11.3846 13.5192 11.2692Z" fill="white"/>
</g>
<defs>
<clipPath id="clip0_7553_25588">
<rect width="15" height="15" fill="white" transform="translate(2.5 2.5)"/>
</clipPath>
</defs>
</svg>
